<?xml version="1.0" encoding="iso-8859-1"?>
<!-- Uploaded to: SVG Repo, www.svgrepo.com, Generator: SVG Repo Mixer Tools -->
<!DOCTYPE svg PUBLIC "-//W3C//DTD SVG 1.1//EN" "http://www.w3.org/Graphics/SVG/1.1/DTD/svg11.dtd">
<svg fill="#000000" height="800px" width="800px" version="1.1" id="Capa_1" xmlns="http://www.w3.org/2000/svg" xmlns:xlink="http://www.w3.org/1999/xlink" 
	 viewBox="0 0 195.669 195.669" xml:space="preserve">
<path d="M188.666,76.067c-0.802,1.808-2.594,2.974-4.571,2.974h-31.081v111.628c0,2.762-2.238,5-5,5h-47.977
	c19.982-11.962,33.393-33.816,33.393-58.75c0-37.731-30.696-68.428-68.428-68.428c-2.789,0-5.534,0.188-8.237,0.513l61.052-67.362
	C118.765,0.597,120.111,0,121.522,0s2.757,0.597,3.705,1.643L187.8,70.684C189.128,72.148,189.467,74.259,188.666,76.067z
	 M69.063,160.346h5.242c5.635,0,10.219-4.584,10.219-10.219s-4.584-10.219-10.219-10.219h-5.242V160.346z M43.601,119.687
	c0,5.639,4.583,10.222,10.216,10.222h5.246v-20.438h-5.246C48.184,109.471,43.601,114.054,43.601,119.687z M123.43,136.919
	c0,32.218-26.211,58.429-58.428,58.429c-32.218,0-58.429-26.211-58.429-58.429c0-32.217,26.211-58.428,58.429-58.428
	C97.219,78.491,123.43,104.702,123.43,136.919z M69.063,129.908v-20.438h20.461c2.762,0,5-2.238,5-5s-2.238-5-5-5H69.063v-3.854
	c0-2.762-2.238-5-5-5c-2.762,0-5,2.238-5,5v3.854h-5.246c-11.147,0-20.216,9.068-20.216,20.222c0,11.147,9.068,20.216,20.216,20.216
	h5.246v20.438H38.601c-2.762,0-5,2.238-5,5s2.238,5,5,5h20.462v5.498c0,2.762,2.238,5,5,5c2.762,0,5-2.238,5-5v-5.498h5.242
	c11.148,0,20.219-9.07,20.219-20.219s-9.07-20.219-20.219-20.219H69.063z"/>
</svg>