<?xml version="1.0" encoding="utf-8"?>

<!-- Uploaded to: SVG Repo, www.svgrepo.com, Generator: SVG Repo Mixer Tools -->
<svg fill="#000000" height="800px" width="800px" version="1.1" id="Icons" xmlns="http://www.w3.org/2000/svg" xmlns:xlink="http://www.w3.org/1999/xlink" 
	 viewBox="0 0 32 32" xml:space="preserve">
<g>
	<path d="M26.5,13c-3,0-5.5-2.5-5.5-5.5S23.5,2,26.5,2S32,4.5,32,7.5S29.5,13,26.5,13z"/>
</g>
<path d="M19,7.5C19,6.2,19.3,5,19.9,4H7C4.7,4,2.8,5.5,2.2,7.6L16,16.8l5.5-3.7C20,11.7,19,9.7,19,7.5z"/>
<path d="M26.5,15c-1.1,0-2.2-0.3-3.1-0.7l-6.8,4.5C16.4,18.9,16.2,19,16,19s-0.4-0.1-0.6-0.2L2,9.9V23c0,2.8,2.2,5,5,5h18
	c2.8,0,5-2.2,5-5v-8.9C29,14.7,27.8,15,26.5,15z"/>
</svg>